<?xml version="1.0" standalone="no"?>
<!DOCTYPE svg PUBLIC "-//W3C//DTD SVG 20010904//EN"
 "http://www.w3.org/TR/2001/REC-SVG-20010904/DTD/svg10.dtd">
<svg version="1.0" xmlns="http://www.w3.org/2000/svg"
 width="1080.000000pt" height="566.000000pt" viewBox="0 0 1080.000000 566.000000"
 preserveAspectRatio="xMidYMid meet">

<g transform="translate(0.000000,566.000000) scale(0.100000,-0.100000)"
fill="#000000" stroke="none">
<path d="M0 2830 l0 -2830 5400 0 5400 0 0 2527 0 2528 -178 -178 c-143 -142
-183 -177 -204 -177 -33 0 -62 37 -52 66 4 10 75 88 158 172 l151 152 -151
153 c-83 83 -154 161 -158 171 -10 29 19 66 52 66 21 0 61 -35 204 -177 l178
-178 0 268 0 267 -5400 0 -5400 0 0 -2830z m10328 2658 c7 -7 12 -24 12 -38 0
-23 -252 -698 -281 -751 -8 -16 -19 -19 -47 -17 -71 6 -70 15 83 414 75 197
144 369 151 382 16 24 62 30 82 10z m-408 -27 c5 -11 10 -28 10 -38 0 -10 -66
-84 -150 -168 -82 -82 -150 -154 -150 -160 0 -6 68 -81 150 -167 151 -157 169
-185 138 -216 -7 -7 -26 -12 -42 -12 -27 -1 -54 23 -209 182 -153 157 -178
186 -175 210 2 21 49 74 182 208 147 147 185 180 208 180 17 0 31 -7 38 -19z
m-9222 -295 c3 -45 1 -49 -61 -114 -54 -56 -126 -167 -115 -177 2 -1 28 1 58
6 30 4 81 8 113 8 67 1 59 -9 167 200 38 74 71 126 80 126 8 0 18 -15 24 -32
8 -29 4 -40 -26 -90 -54 -89 -111 -194 -107 -197 2 -2 14 -9 27 -15 32 -17 27
-28 -16 -36 -37 -6 -40 -10 -84 -98 -25 -51 -54 -118 -64 -150 -31 -100 -60
-95 -104 18 -28 70 -72 140 -96 149 -21 8 -16 14 -58 -73 -38 -81 -89 -141
-118 -141 -10 0 -18 4 -18 8 0 5 25 58 55 119 48 98 54 115 45 139 -11 29 -1
44 30 44 16 0 148 245 138 255 -2 2 -30 -11 -61 -31 -65 -41 -87 -41 -54 -2
23 29 215 140 232 135 6 -2 11 -25 13 -51z m731 38 c22 -5 31 -12 31 -26 0
-17 -55 -130 -80 -163 -4 -5 -44 -83 -90 -172 -45 -89 -89 -164 -97 -167 -8
-3 -23 -1 -34 4 -16 9 -27 3 -67 -33 -48 -45 -125 -100 -152 -109 -8 -3 -27 1
-42 9 -54 26 -50 98 12 222 37 74 43 81 70 81 16 0 32 -5 35 -11 4 -5 -16 -57
-44 -115 -28 -57 -51 -107 -51 -109 0 -10 39 -4 76 11 22 9 67 35 100 57 49
33 67 52 84 92 49 110 128 304 144 353 26 79 40 89 105 76z m769 -15 c-4 -28
-18 -35 -106 -50 -96 -16 -98 -19 -219 -294 -22 -49 -46 -106 -53 -125 -25
-68 -82 -180 -93 -180 -16 0 -47 31 -47 47 0 7 4 21 9 31 5 9 28 58 51 107 23
50 59 126 80 170 50 102 91 197 88 201 -7 6 -78 7 -115 0 -34 -6 -46 -4 -59 9
-11 11 -13 20 -7 26 14 14 111 39 158 39 22 1 81 10 130 20 50 10 112 19 138
19 44 1 48 -1 45 -20z m38 -65 c-6 -54 -49 -154 -118 -274 -29 -50 -98 -204
-98 -217 0 -3 40 35 88 86 48 50 95 91 103 91 8 0 27 -11 42 -25 22 -21 26
-31 20 -53 -13 -46 -9 -97 6 -97 22 0 87 57 104 90 42 84 137 158 190 148 32
-6 42 -34 34 -95 -7 -52 -35 -81 -112 -113 -61 -26 -69 -35 -51 -64 11 -17 74
-8 129 21 53 27 136 111 165 169 46 89 102 128 102 72 1 -16 14 -43 30 -63 35
-41 37 -61 9 -106 -23 -38 -22 -77 2 -82 20 -4 111 81 132 123 22 43 96 116
134 131 63 27 102 -11 88 -83 -10 -57 -31 -79 -106 -114 -56 -27 -69 -37 -67
-53 8 -53 123 -17 215 66 48 44 68 57 76 49 15 -15 -88 -109 -176 -163 -76
-48 -117 -50 -158 -9 -16 16 -29 37 -29 45 0 9 -7 16 -15 16 -8 0 -15 -4 -15
-10 0 -16 -81 -70 -106 -70 -29 0 -64 44 -64 82 0 16 9 47 21 69 14 28 18 50
14 71 l-7 30 -25 -24 c-14 -13 -56 -70 -94 -127 l-70 -104 -11 30 -11 30 -73
-38 c-49 -25 -80 -36 -92 -31 -36 14 -62 40 -73 70 l-11 31 -51 -36 c-41 -29
-55 -34 -75 -27 -41 15 -47 35 -32 98 10 45 11 59 1 69 -9 9 -35 -12 -120
-102 -78 -81 -113 -112 -125 -108 -9 4 -16 12 -16 20 0 36 116 357 185 512 25
56 84 125 107 125 7 0 9 -19 4 -56z m-1171 -165 c-3 -41 -29 -67 -53 -53 -26
17 -26 50 0 68 37 26 56 21 53 -15z m115 -344 c17 -20 9 -45 -21 -67 -22 -16
-30 -18 -48 -9 -27 15 -27 39 1 68 25 26 50 30 68 8z m-35 -389 c19 -29 29 2
-143 -446 -115 -299 -132 -336 -155 -344 -21 -8 -31 -6 -47 9 -11 10 -20 23
-20 29 0 12 266 710 282 741 22 42 60 47 83 11z m-410 -20 c24 -36 13 -50
-153 -218 l-147 -148 56 -57 c199 -207 245 -256 252 -269 12 -21 -18 -64 -46
-64 -15 0 -78 57 -209 188 -104 104 -188 195 -188 202 0 7 84 98 188 202 197
198 217 211 247 164z m702 -158 c141 -140 183 -189 183 -208 0 -19 -43 -68
-185 -210 -177 -177 -185 -184 -212 -174 -20 7 -29 17 -31 37 -3 23 18 50 145
183 81 85 149 160 151 167 1 7 -65 79 -148 162 -120 119 -150 155 -150 177 0
27 21 47 50 48 8 0 97 -82 197 -182z m9163 -168 l0 -320 -2920 0 -2920 0 0
320 0 320 2920 0 2920 0 0 -320z m-7909 148 c10 -13 18 -33 19 -46 0 -33 -43
-113 -84 -156 -35 -35 -46 -54 -26 -41 6 3 7 -1 4 -9 -3 -9 -10 -14 -14 -11
-9 6 -23 -25 -15 -33 3 -3 5 1 5 8 0 7 2 11 5 8 9 -9 -21 -69 -30 -61 -4 5 -5
3 -1 -4 8 -14 -15 -93 -27 -93 -4 0 -22 13 -39 29 -28 26 -30 32 -24 73 8 53
49 143 113 247 74 121 82 127 114 89z m831 -4 c23 -8 31 -38 29 -101 -5 -99
-4 -128 4 -150 6 -19 4 -23 -12 -23 -20 0 -28 -25 -48 -152 -3 -21 -8 -38 -11
-38 -10 0 -49 23 -55 33 -9 13 0 70 12 78 5 3 7 14 3 23 -4 11 -1 22 7 27 11
7 10 9 -4 9 -10 0 -51 -16 -92 -36 -58 -28 -74 -41 -78 -62 -3 -15 -12 -36
-20 -46 -14 -19 -16 -19 -41 -2 -15 9 -32 28 -38 41 -15 34 22 106 113 220
122 152 175 202 204 189 6 -2 18 -7 27 -10z m538 -34 c11 -21 20 -53 20 -71 0
-31 0 -31 23 -15 12 9 33 22 47 28 14 7 27 15 30 19 3 3 25 16 49 29 54 27 85
17 107 -35 19 -47 18 -58 -11 -89 -14 -15 -25 -34 -25 -42 0 -7 -5 -14 -11
-14 -6 0 -8 -9 -4 -20 4 -13 -1 -33 -14 -54 -11 -18 -18 -35 -15 -38 10 -11
-25 -78 -41 -78 -25 0 -65 46 -65 75 0 14 18 61 40 105 22 44 38 80 34 80 -15
0 -55 -29 -117 -85 -58 -52 -73 -61 -99 -57 -44 7 -54 41 -28 109 11 29 20 59
20 66 -1 24 -67 -64 -119 -158 -29 -52 -57 -95 -62 -95 -5 0 -9 -11 -9 -25 0
-14 -6 -25 -13 -25 -13 0 -46 32 -62 58 -12 21 112 218 189 299 82 87 105 93
136 33z m-1249 -946 c11 -14 10 -18 -6 -30 -13 -10 -22 -11 -32 -3 -16 14 -17
36 0 42 20 9 24 8 38 -9z m1140 0 c11 -14 10 -18 -6 -30 -16 -12 -21 -12 -37
3 -18 16 -18 18 -2 30 23 17 29 16 45 -3z m303 0 c3 -9 6 -29 6 -45 0 -27 2
-29 21 -18 17 9 25 7 45 -12 19 -18 24 -33 24 -70 0 -26 4 -59 10 -73 8 -21 6
-27 -11 -37 -32 -17 -43 2 -47 81 -2 39 -7 70 -11 70 -21 0 -31 -30 -31 -92 0
-65 -1 -68 -24 -68 l-25 0 -3 128 c-2 70 1 133 6 140 12 17 33 15 40 -4z
m1769 -2 c15 -16 15 -19 -3 -30 -12 -7 -21 -8 -25 -2 -9 15 -25 2 -25 -21 0
-14 7 -19 25 -19 18 0 25 -5 25 -20 0 -15 -7 -20 -25 -20 -24 0 -25 -2 -25
-75 0 -73 -1 -75 -25 -75 -24 0 -25 2 -25 65 0 36 -6 75 -12 86 -10 17 -10 23
0 26 6 3 12 16 12 31 0 32 36 72 65 72 12 0 29 -8 38 -18z m-3085 -4 c7 -7 12
-21 12 -31 0 -10 9 -21 20 -24 11 -3 20 -14 20 -24 0 -12 -7 -19 -20 -19 -17
0 -20 -7 -20 -48 0 -36 5 -54 20 -67 15 -14 17 -21 9 -32 -16 -18 -29 -16 -56
9 -19 17 -23 32 -23 78 0 31 -5 61 -11 67 -8 8 -7 16 2 31 10 16 10 23 0 35
-10 13 -9 17 6 26 23 13 27 13 41 -1z m1147 -26 c6 -21 16 -32 27 -32 11 0 18
-7 18 -20 0 -13 -7 -20 -20 -20 -17 0 -20 -7 -20 -48 0 -37 5 -54 21 -68 19
-17 19 -19 3 -31 -24 -17 -31 -16 -54 7 -15 15 -20 33 -20 79 0 38 -4 61 -12
64 -10 3 -10 9 0 26 9 15 10 27 2 41 -8 15 -6 21 7 29 26 15 37 9 48 -27z
m5196 23 c430 -64 758 -289 953 -656 325 -612 75 -1386 -549 -1697 -85 -42
-266 -98 -358 -111 -111 -16 -310 -14 -409 4 -263 46 -498 172 -686 368 -473
496 -452 1290 48 1760 188 177 412 286 674 327 142 23 198 24 327 5z m-8281
-125 l0 -130 -25 0 -25 0 0 130 0 130 25 0 25 0 0 -130z m1310 43 c0 -49 5
-95 10 -103 19 -28 30 10 30 103 l0 87 30 0 30 0 0 -92 c0 -105 12 -141 30
-93 10 26 9 93 -1 149 -2 10 4 23 14 30 31 19 47 -16 47 -102 0 -117 -52 -182
-105 -132 l-23 22 -11 -21 c-15 -28 -42 -27 -69 2 -30 32 -42 78 -42 164 l0
73 30 0 30 0 0 -87z m2670 -18 l0 -105 45 0 c41 0 45 -2 45 -25 0 -24 -2 -25
-70 -25 l-70 0 0 130 0 130 25 0 25 0 0 -105z m-3685 45 c3 -5 19 -7 34 -4
l29 6 4 -93 c4 -93 -4 -118 -28 -98 -8 6 -21 5 -38 -2 -23 -11 -29 -9 -51 11
-21 20 -25 33 -25 82 0 49 4 63 25 83 26 27 40 31 50 15z m218 1 c15 8 23 7
35 -4 13 -14 18 -14 37 -1 47 31 81 -13 86 -111 3 -57 1 -70 -14 -79 -25 -16
-37 7 -37 74 0 59 -11 87 -29 76 -6 -4 -11 -38 -11 -82 0 -72 -1 -74 -25 -74
-23 0 -24 3 -27 75 -4 100 -22 102 -26 3 -3 -75 -4 -78 -27 -78 -24 0 -25 2
-25 78 0 43 -5 83 -11 89 -8 8 -4 15 12 27 15 10 27 12 33 6 6 -6 16 -5 29 1z
m452 -1 c3 -5 19 -7 35 -3 l30 6 0 -74 c0 -41 3 -84 6 -95 6 -23 -24 -43 -36
-24 -5 8 -15 7 -34 -1 -23 -11 -29 -10 -51 11 -21 20 -25 33 -25 82 0 49 4 63
25 83 26 27 40 31 50 15z m684 0 c17 8 25 6 42 -11 l21 -21 -22 -15 c-17 -12
-24 -13 -30 -3 -17 28 -30 -4 -30 -76 0 -71 -1 -74 -24 -74 -23 0 -24 3 -28
93 -3 73 -1 95 11 104 10 9 18 10 27 2 9 -7 19 -7 33 1z m520 -16 c24 -19 31
-34 31 -60 0 -34 0 -34 -45 -34 -47 0 -59 -16 -31 -39 10 -9 16 -8 26 4 10 12
16 13 26 4 19 -15 18 -29 -3 -45 -28 -21 -58 -16 -87 12 -21 22 -26 36 -26 79
0 47 4 56 31 79 17 14 34 26 39 26 5 0 22 -12 39 -26z m226 6 c17 -19 17 -22
2 -37 -12 -13 -19 -14 -30 -5 -22 18 -27 4 -27 -75 l0 -74 -27 3 c-28 3 -28 4
-30 76 -1 40 -4 79 -7 87 -7 18 19 38 41 31 10 -3 25 -1 33 4 21 13 24 13 45
-10z m1292 8 l32 2 3 -88 c4 -91 -9 -129 -33 -105 -9 9 -18 9 -31 2 -47 -25
-95 37 -85 111 6 49 43 94 67 84 8 -4 29 -7 47 -6z m554 -17 c24 -24 29 -38
29 -77 0 -38 -5 -54 -27 -76 -32 -33 -51 -35 -87 -7 -23 18 -26 28 -26 79 0
53 3 61 31 84 39 33 44 32 80 -3z m239 -65 c0 -51 -4 -64 -27 -88 -33 -35 -49
-35 -85 -1 -26 25 -28 33 -28 100 0 71 1 73 25 73 23 0 24 -3 27 -72 2 -57 6
-73 18 -73 12 0 15 14 15 68 0 49 4 70 15 77 24 16 40 -17 40 -84z m179 68
c24 -19 31 -34 31 -60 0 -34 0 -34 -45 -34 -46 0 -54 -10 -35 -40 7 -12 11
-12 28 3 17 16 20 16 32 2 11 -13 10 -19 -5 -35 -24 -27 -57 -25 -89 5 -22 20
-26 32 -26 79 0 48 3 57 31 80 17 14 34 26 39 26 5 0 22 -12 39 -26z m530 0
c28 -23 31 -32 31 -80 0 -47 -4 -59 -26 -79 -33 -30 -53 -31 -88 -4 -23 18
-26 28 -26 79 0 53 3 61 31 84 17 14 34 26 39 26 5 0 22 -12 39 -26z m175 15
c30 25 69 -20 41 -48 -13 -13 -17 -14 -24 -2 -18 29 -31 -2 -31 -75 0 -72 -1
-74 -25 -74 -25 0 -25 1 -25 78 0 43 -5 83 -11 89 -16 16 30 46 48 31 9 -7 17
-7 27 1z m-3554 -70 c0 -39 5 -79 10 -89 8 -15 6 -21 -12 -31 -35 -19 -48 11
-48 108 0 82 0 83 25 83 24 0 25 -2 25 -71z m852 -1 c2 -40 8 -73 13 -73 6 0
11 33 13 73 3 69 4 72 27 72 24 0 25 -3 25 -62 0 -35 5 -70 10 -78 18 -27 31
9 28 75 -3 52 0 60 16 63 27 6 36 -15 36 -80 0 -46 -5 -62 -26 -87 -29 -34
-58 -40 -73 -14 -9 17 -11 17 -29 -1 -47 -42 -102 24 -102 123 0 61 0 61 30
61 l29 0 3 -72z m288 1 c0 -39 5 -79 10 -89 8 -15 6 -21 -12 -31 -35 -19 -48
11 -48 108 0 82 0 83 25 83 24 0 25 -2 25 -71z m-1091 -232 c8 -11 7 -18 -7
-31 -18 -15 -20 -15 -35 2 -13 14 -14 21 -5 30 16 16 33 15 47 -1z m776 -1
c16 -12 17 -16 6 -30 -9 -11 -17 -13 -26 -6 -8 6 -15 6 -23 -2 -21 -21 -13
-38 18 -38 23 0 30 -4 30 -20 0 -16 -7 -20 -30 -20 l-30 0 0 -75 c0 -73 -1
-75 -25 -75 -24 0 -25 2 -25 75 0 43 -4 75 -10 75 -5 0 -10 7 -10 15 0 8 5 15
10 15 6 0 10 10 10 22 0 26 47 78 70 78 9 0 25 -6 35 -14z m-2557 -27 c43 -42
44 -89 3 -130 -16 -16 -37 -29 -45 -29 -23 0 -20 43 4 58 23 14 26 54 5 72
-27 23 -35 0 -35 -106 l0 -104 -30 0 -30 0 0 101 c0 55 -5 109 -10 119 -8 15
-6 21 11 30 11 7 26 10 32 7 7 -2 21 -1 32 4 29 11 29 12 63 -22z m217 -49
c17 -19 17 -22 2 -37 -12 -13 -19 -14 -30 -5 -22 18 -27 4 -27 -75 l0 -73 -29
0 -30 0 -3 91 c-3 95 4 116 39 105 10 -3 25 -1 33 4 21 13 24 13 45 -10z m174
-6 c28 -23 31 -32 31 -82 0 -95 -62 -134 -114 -71 -39 46 -37 111 5 150 17 16
35 29 39 29 5 0 22 -12 39 -26z m214 15 l27 1 0 -124 0 -125 -29 -20 c-16 -12
-37 -21 -48 -21 -22 1 -53 23 -53 39 0 11 6 13 50 15 20 1 26 7 28 29 3 25 1
28 -17 22 -15 -4 -28 1 -46 19 -37 37 -36 112 2 150 17 17 32 24 42 20 9 -4
28 -6 44 -5z m227 -28 c0 -23 -30 -37 -42 -19 -15 24 -28 -14 -28 -84 0 -65
-1 -68 -24 -68 -23 0 -24 3 -28 93 -4 96 1 111 37 103 11 -3 27 -1 35 4 19 12
50 -6 50 -29z m135 29 c3 -5 19 -7 35 -3 l30 6 0 -80 c0 -43 5 -84 10 -89 8
-8 6 -15 -5 -24 -12 -10 -18 -10 -30 0 -12 10 -19 10 -27 2 -38 -38 -88 15
-88 91 0 42 5 56 27 79 29 30 38 34 48 18z m262 -5 c18 -13 22 -13 33 0 17 21
27 19 55 -10 21 -20 25 -34 25 -83 0 -32 5 -63 11 -69 8 -8 5 -14 -11 -23 -35
-18 -49 2 -52 78 -2 41 -8 67 -15 70 -10 3 -13 -17 -13 -77 0 -80 0 -81 -25
-81 -24 0 -25 2 -25 64 0 68 -6 96 -21 96 -5 0 -9 -36 -9 -80 l0 -80 -29 0
-30 0 -3 93 c-3 97 2 111 39 102 12 -3 25 -1 28 5 8 14 17 13 42 -5z m339 2
c46 30 81 -15 85 -112 3 -57 1 -70 -14 -79 -25 -16 -37 7 -37 74 0 59 -11 87
-29 76 -6 -4 -11 -38 -11 -82 0 -72 -1 -74 -25 -74 -23 0 -24 3 -27 78 -2 43
-7 77 -13 77 -6 0 -11 -34 -13 -77 -3 -75 -4 -78 -27 -78 -24 0 -25 2 -25 78
0 44 -5 83 -11 89 -8 8 -5 14 11 23 12 6 27 9 34 7 7 -3 19 -1 27 4 9 5 22 3
34 -5 16 -11 23 -11 41 1z m415 -6 c20 -16 25 -32 30 -92 4 -54 2 -78 -7 -88
-24 -27 -43 4 -46 77 -2 52 -6 67 -18 67 -12 0 -16 -17 -18 -77 -3 -75 -4 -78
-27 -78 -24 0 -25 2 -25 73 0 39 -4 79 -10 87 -14 22 8 42 41 35 15 -3 30 -1
34 4 9 16 20 14 46 -8z m184 9 c3 -5 19 -7 35 -3 l30 6 0 -122 c0 -119 -1
-123 -26 -146 -15 -14 -36 -25 -46 -25 -28 0 -58 18 -58 35 0 15 5 17 50 19
20 1 26 7 28 29 3 25 1 27 -21 22 -61 -16 -94 118 -42 170 26 27 40 31 50 15z
m570 -10 c17 -19 17 -22 2 -37 -12 -13 -19 -14 -30 -5 -22 18 -27 4 -27 -75 0
-71 -1 -73 -25 -73 -24 0 -25 2 -25 73 0 39 -4 79 -10 87 -14 22 8 42 41 35
15 -3 30 -1 34 4 9 16 20 13 40 -9z m208 -47 c17 -63 -21 -143 -68 -143 -12 0
-31 10 -42 23 -45 49 -40 134 10 166 31 20 32 20 62 1 16 -10 33 -32 38 -47z
m183 53 c17 -13 21 -12 37 2 16 14 20 14 45 -5 23 -17 28 -29 32 -84 3 -35 9
-69 13 -76 5 -7 -1 -16 -14 -23 -32 -17 -43 1 -49 77 -3 40 -10 68 -17 71 -10
3 -13 -17 -13 -77 0 -79 -1 -81 -25 -81 -23 0 -24 3 -27 77 -2 50 -7 78 -15
81 -10 3 -13 -17 -13 -77 l0 -81 -29 0 -30 0 -3 91 c-3 96 4 116 41 104 10 -3
22 -1 26 5 8 14 17 13 41 -4z m447 3 l27 1 0 -78 c0 -43 5 -83 10 -88 8 -8 6
-15 -5 -24 -12 -10 -18 -10 -30 0 -12 10 -19 10 -27 2 -37 -37 -88 15 -88 89
0 37 6 54 26 79 18 21 32 29 43 24 9 -4 28 -6 44 -5z m588 -18 c24 -25 29 -37
29 -81 0 -41 -5 -56 -25 -75 -30 -30 -54 -31 -89 -4 -23 18 -26 28 -26 79 0
53 3 61 31 84 39 33 44 32 80 -3z m444 4 c21 -20 25 -34 25 -83 0 -32 5 -63
11 -69 8 -8 5 -14 -11 -23 -35 -19 -49 2 -52 78 -2 52 -6 67 -18 67 -12 0 -16
-17 -18 -77 -3 -75 -4 -78 -27 -78 -24 0 -25 2 -25 79 0 45 -5 83 -10 86 -21
13 12 37 42 31 15 -3 30 -1 33 4 10 16 24 12 50 -15z m180 15 c3 -5 19 -7 35
-3 l30 6 0 -126 0 -126 -29 -20 c-16 -12 -37 -21 -48 -21 -22 1 -53 23 -53 39
0 11 6 13 50 15 20 1 26 7 28 29 3 25 1 27 -21 22 -61 -16 -93 114 -42 169 25
27 40 32 50 16z m388 -1 l27 1 0 -78 c0 -43 5 -83 10 -88 8 -8 6 -15 -5 -24
-12 -10 -18 -10 -30 0 -12 10 -19 10 -27 2 -38 -38 -88 15 -88 91 0 42 5 56
27 79 17 18 33 26 43 22 8 -4 27 -6 43 -5z m220 0 l27 1 0 -124 c0 -123 0
-125 -26 -145 -34 -27 -66 -27 -90 0 -16 17 -16 22 -4 30 8 5 27 6 43 3 25 -5
27 -3 27 26 0 27 -3 30 -20 25 -13 -4 -28 2 -45 19 -37 37 -36 109 2 148 17
18 33 26 43 22 8 -4 27 -6 43 -5z m206 -15 c24 -19 31 -34 31 -60 0 -34 0 -34
-45 -34 -46 0 -54 -10 -35 -40 8 -12 11 -12 28 3 14 13 21 14 30 5 19 -19 14
-32 -16 -50 -24 -14 -30 -14 -54 -2 -37 19 -48 43 -48 102 0 44 4 54 31 76 17
14 34 26 39 26 5 0 22 -12 39 -26z m-3819 -62 c0 -44 5 -83 11 -89 8 -8 5 -14
-11 -23 -39 -21 -50 2 -50 101 0 88 0 89 25 89 25 0 25 -1 25 -78z m2096 66
c4 -6 10 -39 13 -72 3 -34 11 -61 16 -61 6 0 11 33 13 73 3 69 4 72 27 72 l25
0 0 -124 c0 -123 0 -125 -26 -145 -32 -25 -52 -26 -82 -5 -31 22 -12 48 30 39
25 -6 28 -4 28 20 0 20 -4 26 -15 21 -8 -3 -27 5 -41 17 -22 19 -27 35 -34 92
-7 70 -2 84 27 85 6 0 15 -5 19 -12z m436 -60 c2 -60 6 -73 21 -76 15 -3 17 6
17 72 0 74 1 76 25 76 l25 0 0 -100 c0 -93 -1 -100 -20 -100 -11 0 -20 5 -20
12 0 9 -3 9 -12 0 -18 -18 -39 -15 -65 10 -20 19 -23 31 -23 100 0 76 1 78 25
78 23 0 24 -3 27 -72z m1456 -90 c13 -13 -2 -38 -23 -38 -21 0 -36 25 -23 38
7 7 17 12 23 12 6 0 16 -5 23 -12z m-598 -807 c118 -27 187 -54 272 -110 148
-97 264 -253 319 -431 20 -62 24 -97 24 -205 0 -147 -18 -222 -82 -350 l-36
-70 -12 51 c-14 61 -45 115 -82 140 -15 11 -77 44 -137 74 -86 43 -113 61
-120 81 -13 37 -1 74 29 87 45 21 75 14 112 -23 l35 -35 59 41 c65 44 66 50
12 100 -51 48 -92 63 -173 63 -62 1 -84 -4 -125 -25 -102 -52 -142 -168 -95
-277 29 -66 68 -97 203 -161 79 -37 110 -56 119 -76 29 -64 -41 -123 -130
-110 -37 5 -56 16 -90 50 l-43 43 -64 -37 -65 -38 29 -40 c54 -74 125 -110
246 -122 l70 -7 -76 -37 c-112 -54 -211 -77 -339 -77 -346 0 -626 210 -731
550 -20 62 -24 97 -24 205 0 108 4 143 24 205 42 136 96 225 196 325 96 96
167 144 269 181 152 55 269 65 406 35z m-1798 -66 c217 -53 384 -188 484 -390
60 -121 77 -209 71 -355 -6 -131 -19 -181 -79 -298 -92 -183 -279 -327 -482
-373 -34 -7 -105 -10 -197 -7 -135 4 -149 7 -221 37 -254 107 -414 308 -458
576 -14 84 -14 112 -2 190 14 92 40 173 78 246 155 296 488 450 806 374z
m-1721 -131 c209 -62 364 -233 408 -452 24 -117 1 -256 -61 -373 -67 -126
-227 -251 -360 -281 -304 -68 -592 93 -688 384 -28 87 -28 250 1 339 30 92 75
165 144 235 68 69 130 107 225 140 82 29 247 33 331 8z m-1266 -154 c10 -11
16 -20 13 -20 -3 0 -13 9 -23 20 -10 11 -16 20 -13 20 3 0 13 -9 23 -20z m81
-122 c36 -72 28 -72 -10 0 -19 35 -38 69 -43 75 -4 7 0 4 11 -7 10 -12 29 -42
42 -68z m53 -143 c0 -11 -7 0 -15 25 -17 56 -17 64 1 25 8 -16 14 -39 14 -50z
m-284 23 c42 -33 55 -76 55 -180 0 -70 -5 -104 -19 -135 -30 -66 -54 -73 -241
-73 -136 0 -160 -2 -160 -15 0 -12 18 -15 105 -15 l105 0 0 -60 c0 -51 -4 -65
-24 -85 -32 -32 -85 -45 -181 -45 -96 0 -143 12 -179 45 -26 24 -26 26 -26
160 0 141 8 173 48 191 9 4 86 10 170 13 l154 6 29 33 c27 30 29 39 29 107 l0
75 54 0 c40 0 60 -6 81 -22z m304 -182 c1 -112 -5 -91 -11 34 -3 58 -2 92 2
75 4 -16 8 -66 9 -109z m1678 -18 c-3 -7 -5 -2 -5 12 0 14 2 19 5 13 2 -7 2
-19 0 -25z m-22 -150 c-51 -204 -195 -381 -380 -469 -116 -56 -191 -73 -315
-73 -124 1 -226 25 -335 82 -80 41 -234 188 -273 260 -31 56 -23 53 16 -5 78
-120 207 -219 347 -268 127 -44 243 -54 360 -31 273 54 465 218 555 474 12 35
20 75 17 88 -2 13 0 21 4 18 5 -3 10 5 10 18 2 20 3 19 6 -4 2 -15 -3 -56 -12
-90z m-1668 40 c-3 -7 -5 -2 -5 12 0 14 2 19 5 13 2 -7 2 -19 0 -25z m-10 -40
c-3 -8 -6 -5 -6 6 -1 11 2 17 5 13 3 -3 4 -12 1 -19z"/>
<path d="M605 4833 c-113 -7 -136 -20 -97 -54 29 -26 87 -93 106 -122 10 -15
21 -27 25 -27 4 0 15 26 25 58 10 31 27 74 38 95 11 22 18 40 16 42 -8 6 -67
10 -113 8z"/>
<path d="M2494 4762 c-56 -65 -59 -72 -35 -72 28 0 101 72 101 98 0 34 -22 26
-66 -26z"/>
<path d="M3114 4755 c-26 -31 -44 -58 -40 -62 12 -13 76 27 96 59 46 77 9 78
-56 3z"/>
<path d="M5110 4033 c-69 -11 -183 -55 -212 -81 -22 -19 -24 -75 -3 -92 8 -7
41 -15 72 -20 71 -9 113 -25 113 -43 0 -28 -70 -71 -137 -85 -28 -6 -38 -13
-39 -27 -2 -60 44 -71 130 -30 102 48 128 108 82 188 -16 26 -39 50 -56 57
-17 7 -30 16 -30 20 0 13 82 27 140 25 72 -3 85 8 62 47 -24 43 -54 52 -122
41z"/>
<path d="M6932 4028 c-5 -7 -15 -52 -22 -100 l-12 -88 -37 -9 c-20 -5 -51 -12
-69 -16 l-33 -7 6 69 c6 61 5 72 -16 105 -13 21 -27 37 -31 38 -15 0 -27 -38
-38 -118 -6 -46 -20 -110 -31 -144 -23 -75 -24 -80 -1 -108 25 -31 65 -21 84
20 9 21 29 38 66 55 59 28 75 26 66 -11 -8 -30 19 -74 45 -74 24 0 51 31 51
61 0 13 9 53 20 89 28 90 26 147 -6 204 -29 52 -28 51 -42 34z"/>
<path d="M8499 4036 c-2 -2 -44 -7 -94 -11 -216 -17 -230 -19 -233 -38 -2 -10
4 -30 13 -44 16 -24 21 -25 71 -20 30 3 56 2 58 -1 2 -4 -6 -30 -19 -58 -50
-108 -56 -182 -19 -219 23 -22 64 -20 64 4 0 11 -4 23 -10 26 -18 11 -11 38
37 152 53 125 43 117 162 128 59 5 75 18 60 47 -15 28 -73 50 -90 34z"/>
<path d="M9762 4028 c-5 -7 -15 -52 -22 -100 l-12 -88 -37 -9 c-20 -5 -51 -12
-69 -16 l-33 -7 6 69 c6 61 5 72 -16 105 -13 21 -27 37 -31 38 -14 0 -27 -37
-37 -115 -6 -43 -20 -107 -31 -143 -24 -79 -25 -84 -2 -112 26 -32 63 -21 87
24 14 25 33 41 68 55 56 24 70 20 61 -15 -8 -30 19 -74 45 -74 27 0 48 30 54
75 2 22 12 65 21 95 23 80 20 130 -10 184 -29 52 -28 51 -42 34z"/>
<path d="M5403 4023 c-25 -5 -30 -31 -12 -64 8 -16 16 -19 46 -13 l36 7 -7
-38 c-7 -35 -62 -184 -72 -194 -2 -3 -23 -7 -47 -10 -47 -7 -59 -30 -34 -65
13 -18 19 -19 68 -9 30 7 80 15 112 18 36 4 60 12 64 21 6 17 -34 53 -60 54
-15 0 -16 3 -7 21 7 11 24 62 39 112 27 92 27 92 62 95 81 6 98 22 61 55 -15
14 -39 17 -123 16 -57 -1 -114 -4 -126 -6z"/>
<path d="M5773 3996 c3 -19 1 -36 -4 -38 -6 -2 -6 -23 1 -57 8 -43 7 -62 -6
-100 -22 -61 -24 -136 -4 -156 14 -13 24 -12 99 19 88 37 98 43 149 90 78 73
15 176 -153 250 -79 35 -89 34 -82 -8z m184 -118 c37 -35 26 -59 -42 -95 -33
-18 -65 -33 -71 -33 -8 0 -12 31 -12 95 l0 94 50 -19 c28 -11 62 -29 75 -42z"/>
<path d="M6219 3993 c-1 -21 -1 -67 0 -103 1 -36 -5 -87 -13 -115 -20 -64 -20
-109 0 -129 8 -9 17 -16 18 -16 6 0 153 67 182 82 18 10 44 32 59 50 23 27 26
39 22 73 -8 57 -90 133 -184 169 -38 14 -72 26 -76 26 -4 0 -8 -17 -8 -37z
m130 -81 c34 -16 81 -57 81 -71 0 -21 -110 -90 -145 -91 -6 0 -10 38 -10 95 0
106 -3 103 74 67z"/>
<path d="M7335 4000 c-16 -16 -36 -30 -46 -30 -9 0 -21 -6 -27 -12 -18 -23
-122 -257 -122 -276 0 -10 9 -27 19 -36 27 -25 51 -7 76 57 22 56 39 69 48 36
5 -20 10 -21 67 -14 60 7 62 7 51 -13 -6 -11 -16 -22 -22 -24 -16 -5 18 -58
38 -58 8 0 28 14 45 30 24 25 29 37 26 62 -4 25 1 37 21 55 25 23 26 23 7 38
-11 8 -27 15 -37 15 -21 0 -24 8 -39 103 -12 71 -14 77 -43 86 -16 6 -31 11
-32 11 -1 0 -14 -13 -30 -30z m34 -147 c6 -20 9 -39 7 -41 -9 -9 -86 -14 -86
-6 0 15 50 84 60 84 5 0 14 -17 19 -37z"/>
<path d="M7727 3889 c-37 -78 -67 -150 -67 -160 0 -27 32 -89 46 -89 16 0 44
28 44 43 0 7 9 27 21 46 l20 33 29 -46 c36 -56 70 -75 103 -57 36 19 77 94 88
161 5 34 16 81 24 103 8 23 15 45 15 49 0 11 -53 58 -65 58 -13 0 -28 -43 -45
-128 -13 -62 -43 -122 -66 -129 -19 -6 -24 38 -13 110 13 84 8 107 -30 130
-16 9 -31 17 -33 17 -2 0 -34 -64 -71 -141z"/>
<path d="M9125 4020 c-118 -14 -147 -36 -111 -85 12 -17 18 -17 71 -7 32 7 69
12 83 12 22 0 23 -2 17 -42 -11 -67 -35 -131 -59 -156 -18 -20 -27 -23 -66
-18 -91 12 -92 12 -101 -11 -6 -16 -3 -28 9 -43 15 -19 29 -22 99 -23 78 -2
83 -1 112 27 31 29 62 98 76 166 3 19 11 52 16 73 l10 37 57 -2 c51 -3 57 -1
60 18 2 11 -6 29 -18 39 -24 22 -139 29 -255 15z"/>
<path d="M10162 4000 c-12 -16 -32 -30 -45 -32 -17 -2 -35 -30 -84 -128 -66
-135 -74 -167 -44 -194 16 -15 22 -15 40 -4 12 7 21 19 21 27 0 8 10 34 21 59
21 42 22 43 33 20 11 -21 18 -23 69 -20 44 2 57 -1 57 -12 0 -8 -7 -19 -16
-24 -15 -8 -15 -11 1 -36 22 -34 40 -33 77 4 25 26 29 36 24 62 -5 27 -2 36
21 55 27 22 28 23 9 38 -11 8 -28 15 -37 15 -20 0 -36 42 -46 122 -6 52 -15
63 -53 72 -19 4 -30 -1 -48 -24z m36 -149 c9 -36 8 -40 -12 -45 -27 -7 -66 -8
-66 0 0 19 47 84 60 84 4 0 12 -18 18 -39z"/>
<path d="M3453 3910 c-23 -22 -40 -40 -37 -40 3 0 -10 -22 -30 -49 l-36 -49
55 21 c30 11 55 24 55 30 0 6 6 18 14 26 12 14 33 101 24 101 -1 0 -22 -18
-45 -40z"/>
<path d="M4261 3774 c0 -11 3 -14 6 -6 3 7 2 16 -1 19 -3 4 -6 -2 -5 -13z"/>
<path d="M9025 2681 c-98 -28 -151 -59 -211 -124 -32 -35 -77 -70 -103 -83
-58 -26 -97 -72 -111 -127 -5 -23 -15 -55 -21 -72 -19 -53 -39 -146 -34 -155
12 -20 -18 -145 -41 -173 -52 -62 -60 -198 -18 -305 32 -80 58 -119 84 -127
16 -5 20 -15 20 -48 0 -57 25 -158 51 -210 30 -58 97 -143 155 -197 27 -25 60
-57 73 -73 l23 -27 -28 1 c-16 2 -58 -5 -94 -13 -36 -9 -112 -24 -170 -33
-101 -18 -160 -37 -160 -53 0 -5 24 -19 53 -31 109 -49 212 -91 224 -91 6 0
30 16 53 35 l41 34 35 -34 c19 -19 58 -47 86 -61 45 -23 63 -26 153 -26 120 0
170 19 244 89 48 47 46 47 107 -9 l31 -29 64 24 c80 31 219 95 219 101 0 18
-123 49 -275 70 -27 4 -70 13 -95 20 -25 7 -52 11 -60 9 -8 -2 12 10 45 27
138 74 208 142 262 256 31 64 39 74 62 74 41 0 137 100 174 180 37 81 47 172
24 217 -12 22 -14 38 -7 59 5 16 19 61 31 99 22 70 36 129 45 195 3 19 -3 67
-14 107 -10 39 -15 70 -10 67 13 -8 9 4 -18 61 -35 75 -146 191 -230 240 -66
39 -67 40 -39 45 l30 5 -37 18 c-60 28 -117 47 -210 67 -115 26 -316 26 -403
1z m-89 -376 c80 0 106 -4 121 -16 61 -54 208 -99 317 -98 l81 1 -93 13 c-51
7 -96 16 -100 20 -11 10 194 -5 271 -21 80 -16 164 -54 195 -87 20 -22 21 -28
12 -106 -6 -56 -6 -99 1 -130 9 -39 4 -121 -7 -121 -20 0 -75 39 -97 71 -35
49 -66 65 -148 78 -102 17 -156 14 -179 -9 -25 -25 -26 -47 -2 -54 9 -2 66 -5
125 -5 87 -1 117 -5 150 -21 28 -13 33 -18 17 -15 -80 14 -229 27 -278 23 -36
-3 -69 0 -91 9 -18 8 -48 13 -66 12 -18 -2 -39 2 -46 8 -41 33 -319 97 -400
91 -48 -3 -49 -3 -49 26 0 16 14 54 31 84 16 29 39 90 50 135 26 103 47 141
67 124 10 -8 52 -12 118 -12z m-356 -388 c0 -16 -3 -18 -12 -9 -22 22 -27 13
-11 -17 16 -26 15 -31 0 -64 -19 -40 -22 -93 -6 -103 6 -4 10 1 8 12 -1 11 1
34 5 52 6 27 10 31 22 21 9 -7 13 -22 10 -38 -3 -14 -8 -53 -11 -85 l-7 -60
-20 25 -19 24 16 -32 c8 -18 20 -33 25 -33 6 0 10 -14 10 -31 0 -45 -20 -32
-54 37 -51 104 -52 267 0 312 29 25 44 21 44 -11z m225 -17 c28 -7 28 -8 5 -9
-14 0 -36 -8 -48 -17 -52 -36 -5 -117 75 -129 26 -4 76 -16 111 -27 42 -13 77
-17 98 -13 37 6 43 -4 18 -29 -30 -31 -224 -14 -342 30 -49 18 -58 39 -48 116
10 75 20 88 64 87 20 -1 51 -5 67 -9z m55 -59 c6 -13 7 -22 0 -26 -6 -4 -6
-15 1 -32 9 -25 9 -26 -27 -20 -77 13 -88 97 -12 97 17 0 31 -7 38 -19z m54 3
c9 -3 16 -10 16 -15 0 -14 -26 -10 -40 6 -13 16 -3 20 24 9z m120 -46 c8 -13
18 -35 21 -50 7 -26 5 -28 -26 -28 -37 1 -107 28 -76 29 10 1 16 5 13 10 -3 5
1 11 9 15 8 3 15 15 15 26 0 27 26 26 44 -2z m58 -24 c-5 -40 -5 -40 -20 4
-10 28 -9 32 7 32 14 0 16 -7 13 -36z m148 0 c5 -5 5 -29 0 -54 -9 -45 -12
-170 -3 -138 4 16 6 16 32 -3 33 -24 104 -43 239 -65 96 -15 123 -14 167 2 21
8 17 -8 -22 -103 -19 -45 -31 -63 -47 -65 -16 -2 -20 -9 -18 -28 2 -20 1 -22
-8 -10 -9 13 -11 13 -19 0 -16 -27 -120 -92 -151 -96 -28 -3 -30 -2 -30 32 0
77 -26 93 -170 105 -66 5 -139 18 -186 34 -102 32 -143 32 -178 0 -14 -13 -26
-31 -26 -40 0 -28 -27 -16 -71 33 -62 68 -73 83 -88 119 -7 18 -17 30 -22 27
-5 -3 -9 37 -9 90 l0 95 35 -23 c36 -25 121 -47 262 -67 64 -10 91 -10 123 0
45 13 52 24 70 101 7 30 15 59 18 64 6 10 90 2 102 -10z m326 -9 c113 -20 134
-31 134 -70 0 -17 -7 -55 -15 -83 -19 -62 -33 -68 -139 -59 -163 14 -276 55
-276 100 0 21 7 25 64 35 85 16 170 15 236 -2 66 -17 86 -7 51 27 -13 12 -20
16 -16 8 7 -11 4 -13 -11 -6 -10 4 -59 10 -109 12 -72 4 -102 1 -149 -15 l-58
-20 6 41 c4 23 12 45 19 50 15 11 158 1 263 -18z m291 -75 c18 -34 7 -101 -28
-175 -30 -65 -34 -71 -97 -129 -45 -43 -57 -43 -47 -3 4 15 16 28 31 31 13 4
29 16 35 29 12 21 11 21 -8 5 -11 -10 -22 -18 -25 -18 -9 0 37 169 50 182 9 9
12 3 12 -31 0 -23 -5 -52 -11 -64 -9 -20 -8 -20 11 2 16 19 21 36 19 73 -2 39
2 53 22 74 18 21 20 26 7 21 -14 -5 -18 -1 -18 14 0 28 31 21 47 -11z m-842
-384 c56 -8 140 -24 210 -40 l60 -14 -45 -1 c-62 -1 -175 16 -235 35 -50 16
-84 36 -49 29 10 -2 37 -7 59 -9z m25 -58 c46 -12 112 -20 172 -21 54 -1 98
-5 98 -9 0 -18 -24 -65 -42 -85 -17 -18 -33 -23 -70 -23 -44 0 -51 3 -66 29
-21 37 -75 47 -110 20 -38 -29 -114 -2 -133 48 -10 28 -12 77 -3 86 4 3 23 -1
43 -10 20 -8 70 -24 111 -35z m-64 -334 c51 -22 197 -24 239 -3 17 8 45 13 63
11 41 -4 42 -28 5 -73 -31 -36 -68 -54 -135 -64 -27 -4 -48 -12 -48 -17 0 -7
-4 -7 -12 -1 -7 6 -34 13 -60 15 -61 7 -118 37 -145 78 -37 53 -33 58 43 69 6
0 29 -6 50 -15z"/>
<path d="M8812 2025 c-30 -21 -70 -65 -59 -65 3 0 21 7 40 15 57 24 122 18
221 -20 50 -18 94 -32 98 -29 4 3 8 16 8 29 0 74 -229 126 -308 70z"/>
<path d="M9001 1488 c-14 -38 5 -68 43 -68 10 0 30 -12 43 -26 18 -19 30 -24
46 -19 12 3 28 7 35 7 6 1 12 5 12 9 0 5 14 6 32 2 33 -6 59 14 57 46 0 11 -4
9 -11 -6 -8 -17 -19 -22 -52 -21 -22 0 -52 -3 -66 -6 -20 -6 -32 -1 -53 18
-21 20 -34 25 -54 20 -25 -7 -26 -6 -20 30 6 41 1 47 -12 14z"/>
<path d="M1277 2934 c-4 -4 -7 -29 -7 -56 0 -42 3 -49 18 -46 13 3 17 14 17
52 0 46 -12 66 -28 50z"/>
<path d="M1940 2916 c-13 -36 -2 -88 19 -84 12 3 16 15 16 52 0 56 -19 73 -35
32z"/>
<path d="M3116 2925 c-4 -10 1 -15 14 -15 11 0 20 7 20 15 0 8 -6 15 -14 15
-8 0 -16 -7 -20 -15z"/>
<path d="M4625 2907 c-8 -42 1 -77 20 -77 19 0 30 46 19 78 -14 39 -32 38 -39
-1z"/>
<path d="M5187 2933 c-9 -8 -9 -98 0 -106 13 -13 33 16 33 48 0 53 -14 77 -33
58z"/>
<path d="M5607 2934 c-13 -13 -7 -24 14 -24 11 0 19 5 17 12 -5 14 -22 21 -31
12z"/>
<path d="M6137 2934 c-11 -12 -8 -102 4 -110 18 -11 29 17 27 65 -3 42 -16 60
-31 45z"/>
<path d="M1416 2555 c-11 -30 -6 -82 9 -95 20 -16 27 3 23 61 -3 44 -21 62
-32 34z"/>
<path d="M1624 2557 c-10 -28 0 -82 16 -82 11 0 15 12 15 44 0 44 -19 68 -31
38z"/>
<path d="M2027 2564 c-4 -4 -7 -29 -7 -56 0 -42 3 -48 21 -48 18 0 20 5 17 52
-3 48 -15 68 -31 52z"/>
<path d="M3224 2557 c-10 -28 0 -82 16 -82 11 0 15 12 15 44 0 44 -19 68 -31
38z"/>
<path d="M3936 2554 c-10 -27 -7 -69 8 -89 13 -18 14 -18 25 3 20 37 11 102
-14 102 -7 0 -16 -7 -19 -16z"/>
<path d="M4594 2557 c-3 -8 -4 -32 -2 -53 2 -28 8 -40 21 -42 16 -3 18 3 15
49 -3 51 -22 77 -34 46z"/>
<path d="M5184 2557 c-11 -29 0 -102 16 -102 19 0 22 106 3 112 -7 3 -16 -2
-19 -10z"/>
<path d="M5844 2557 c-10 -28 0 -82 16 -82 11 0 15 12 15 44 0 44 -19 68 -31
38z"/>
<path d="M6197 2564 c-4 -4 -7 -29 -7 -56 0 -42 3 -48 21 -48 18 0 20 5 17 52
-3 48 -15 68 -31 52z"/>
<path d="M6414 2557 c-10 -28 0 -82 16 -82 11 0 15 12 15 44 0 44 -19 68 -31
38z"/>
<path d="M6627 2555 c-5 -10 0 -15 14 -15 12 0 19 5 17 12 -6 18 -25 20 -31 3z"/>
<path d="M5930 747 c0 -295 -1 -304 -21 -323 -13 -12 -35 -19 -61 -19 -35 0
-46 6 -74 39 l-33 38 -43 -25 c-86 -51 -85 -50 -58 -89 105 -154 366 -139 434
24 13 31 16 90 16 348 l0 310 -80 0 -80 0 0 -303z"/>
<path d="M4092 1268 l3 -63 53 -3 c47 -3 52 -1 52 17 0 17 -6 21 -30 21 -25 0
-30 4 -30 25 0 21 5 25 30 25 23 0 30 4 30 20 0 18 -7 20 -55 20 l-56 0 3 -62z"/>
<path d="M4210 1319 c0 -6 12 -25 27 -43 l26 -31 -27 -3 c-19 -2 -26 -8 -24
-20 2 -13 16 -18 61 -20 51 -3 57 -1 57 16 0 11 -9 31 -21 46 l-20 26 20 0
c14 0 21 6 21 20 0 18 -7 20 -60 20 -37 0 -60 -4 -60 -11z"/>
<path d="M4350 1313 c0 -9 12 -30 27 -45 l27 -28 -27 0 c-20 0 -27 -5 -27 -20
0 -18 7 -20 60 -20 70 0 78 15 33 62 l-27 28 27 0 c20 0 27 5 27 20 0 18 -7
20 -60 20 -50 0 -60 -3 -60 -17z"/>
<path d="M3960 1138 c1 -40 58 -639 61 -642 2 -2 61 -19 132 -39 l127 -35 133
37 132 36 27 295 c15 162 27 310 27 328 l1 32 -320 0 c-249 0 -320 -3 -320
-12z m580 -55 c1 -73 -45 -530 -54 -540 -6 -6 -47 -21 -91 -32 -44 -12 -88
-24 -97 -27 -15 -5 -18 1 -18 39 l0 45 -67 18 c-101 26 -101 25 -105 94 l-3
60 42 0 c39 0 42 -2 45 -31 3 -28 8 -34 46 -44 l42 -13 0 64 0 64 -44 0 -44 0
-4 40 -4 40 48 0 48 0 0 40 0 39 -97 3 -98 3 -3 38 -3 37 100 0 101 0 0 40 0
40 130 0 c117 0 130 -2 130 -17z"/>
<path d="M2310 1280 c0 -52 2 -60 19 -60 14 0 18 5 14 20 -4 16 0 20 21 20 19
0 26 -5 26 -20 0 -11 7 -20 15 -20 12 0 15 13 15 60 0 47 -3 60 -15 60 -8 0
-15 -9 -15 -20 0 -15 -7 -20 -25 -20 -18 0 -25 5 -25 20 0 11 -7 20 -15 20
-12 0 -15 -13 -15 -60z"/>
<path d="M2460 1326 c0 -7 9 -16 20 -19 16 -4 20 -14 20 -46 0 -27 4 -41 13
-41 9 0 11 12 9 41 -4 34 -1 41 17 46 11 3 21 12 21 19 0 10 -14 14 -50 14
-36 0 -50 -4 -50 -14z"/>
<path d="M2595 1280 c0 -43 4 -60 13 -60 7 0 12 8 11 18 -4 46 15 59 30 20 l8
-23 7 23 c10 32 26 27 26 -8 0 -20 5 -30 15 -30 12 0 15 13 15 60 0 66 -15 79
-45 38 l-16 -23 -16 23 c-8 12 -23 22 -32 22 -13 0 -16 -11 -16 -60z"/>
<path d="M2750 1280 l0 -60 45 0 c33 0 45 4 45 15 0 10 -10 15 -30 15 -29 0
-30 2 -30 45 0 33 -4 45 -15 45 -12 0 -15 -13 -15 -60z"/>
<path d="M2262 1073 c4 -49 12 -140 18 -203 25 -278 29 -326 30 -341 0 -18 32
-29 170 -59 89 -19 99 -19 165 -5 39 8 90 19 115 24 87 18 80 2 100 241 6 69
12 141 14 160 2 19 7 78 11 130 3 52 8 105 11 118 l4 22 -322 0 -323 0 7 -87z
m528 -47 c0 -7 -5 -27 -11 -45 l-11 -31 -154 0 -153 0 8 -22 c8 -22 13 -23
149 -26 l142 -3 -5 -42 c-2 -23 -10 -86 -16 -139 l-11 -97 -77 -31 -77 -30
-75 30 -76 31 -11 50 c-19 80 -18 81 36 77 42 -3 47 -6 50 -29 4 -35 42 -54
97 -50 35 3 52 25 60 79 l7 52 -135 0 -136 0 -6 48 c-3 26 -10 75 -15 108 -6
34 -10 66 -10 73 0 8 61 11 215 11 174 0 215 -3 215 -14z"/>
<path d="M1048 569 c-30 -17 -16 -69 18 -69 14 0 44 27 44 40 0 10 -29 40 -38
40 -4 0 -15 -5 -24 -11z"/>
</g>
</svg>
